<svg xmlns="http://www.w3.org/2000/svg" xmlns:xlink="http://www.w3.org/1999/xlink" width="136" zoomAndPan="magnify" viewBox="0 0 102 98.249997" height="131" preserveAspectRatio="xMidYMid meet" version="1.2"><defs><clipPath id="d48c158ef0"><path d="M 3.363281 2.976562 L 100.871094 2.976562 L 100.871094 97.503906 L 3.363281 97.503906 Z M 3.363281 2.976562 "/></clipPath><clipPath id="1e24b2522c"><path d="M 0.386719 0 L 97.890625 0 L 97.890625 94.527344 L 0.386719 94.527344 Z M 0.386719 0 "/></clipPath><clipPath id="a33f4944e0"><path d="M 1.875 1.488281 L 99.378906 1.488281 L 99.378906 96.015625 L 1.875 96.015625 Z M 1.875 1.488281 "/></clipPath></defs><g id="8aadac7af2"><g clip-rule="nonzero" clip-path="url(#d48c158ef0)"><path style=" stroke:none;fill-rule:evenodd;fill:#000000;fill-opacity:1;" d="M 31.570312 15.300781 L 31.570312 27.65625 L 39.5625 27.65625 L 39.601562 19.480469 L 39.636719 11.300781 L 66.207031 11.265625 L 92.773438 11.226562 L 92.773438 59.78125 L 84.101562 59.820312 L 75.433594 59.855469 L 75.367188 63.839844 C 75.320312 66.84375 75.347656 67.847656 75.476562 67.929688 C 75.574219 67.988281 81.222656 68.007812 88.027344 67.976562 C 94.835938 67.941406 100.550781 67.917969 100.730469 67.921875 L 101.058594 67.925781 L 101.058594 2.941406 L 31.570312 2.941406 Z M 3.222656 65.015625 L 3.222656 97.582031 L 64.019531 97.582031 L 63.96875 86.699219 C 63.9375 80.714844 63.894531 75.480469 63.863281 75.070312 L 63.816406 74.320312 L 55.703125 74.320312 L 55.703125 89.148438 L 15.523438 89.148438 L 25.835938 78.796875 C 31.507812 73.101562 36.289062 68.328125 36.460938 68.183594 C 36.757812 67.9375 37.539062 67.925781 50.308594 67.925781 L 63.84375 67.925781 L 63.808594 50.226562 L 63.769531 32.527344 L 47.671875 32.488281 L 31.570312 32.453125 L 31.570312 61.460938 L 25.425781 67.5625 C 22.039062 70.929688 18.644531 74.296875 15.25 77.664062 L 11.21875 81.660156 L 11.21875 40.851562 L 12.78125 40.894531 C 13.640625 40.917969 17.042969 40.925781 20.339844 40.910156 L 26.339844 40.886719 L 26.261719 32.527344 L 14.742188 32.488281 L 3.222656 32.453125 Z M 39.800781 40.992188 C 39.75 41.039062 39.710938 45.289062 39.710938 50.429688 L 39.710938 59.785156 L 55.703125 59.785156 L 55.703125 40.910156 L 47.792969 40.90625 C 43.445312 40.902344 39.847656 40.941406 39.800781 40.992188 "/></g><g clip-rule="nonzero" clip-path="url(#1e24b2522c)"><path style=" stroke:none;fill-rule:evenodd;fill:#ffde59;fill-opacity:1;" d="M 28.59375 12.320312 L 28.59375 24.679688 L 36.585938 24.679688 L 36.625 16.5 L 36.660156 8.324219 L 63.226562 8.289062 L 89.796875 8.25 L 89.796875 56.804688 L 81.125 56.839844 L 72.457031 56.878906 L 72.390625 60.859375 C 72.34375 63.867188 72.367188 64.871094 72.5 64.949219 C 72.597656 65.011719 78.246094 65.03125 85.050781 65 C 91.859375 64.964844 97.574219 64.941406 97.753906 64.941406 L 98.082031 64.949219 L 98.082031 -0.0351562 L 28.59375 -0.0351562 Z M 0.246094 62.039062 L 0.246094 94.605469 L 61.042969 94.605469 L 60.992188 83.722656 C 60.960938 77.734375 60.914062 72.503906 60.886719 72.089844 L 60.835938 71.34375 L 52.726562 71.34375 L 52.726562 86.171875 L 12.542969 86.171875 L 22.859375 75.820312 C 28.53125 70.125 33.3125 65.347656 33.484375 65.207031 C 33.78125 64.960938 34.5625 64.949219 47.332031 64.949219 L 60.867188 64.949219 L 60.828125 47.25 L 60.792969 29.550781 L 44.691406 29.511719 L 28.59375 29.476562 L 28.59375 58.484375 L 22.449219 64.585938 C 19.058594 67.953125 15.667969 71.320312 12.273438 74.683594 L 8.238281 78.683594 L 8.238281 37.871094 L 9.804688 37.917969 C 10.664062 37.941406 14.066406 37.949219 17.363281 37.933594 L 23.363281 37.90625 L 23.324219 33.726562 L 23.285156 29.550781 L 0.246094 29.472656 Z M 36.820312 38.011719 C 36.773438 38.0625 36.734375 42.308594 36.734375 47.453125 L 36.734375 56.804688 L 52.726562 56.804688 L 52.726562 37.933594 L 44.816406 37.929688 C 40.46875 37.925781 36.871094 37.964844 36.820312 38.011719 "/></g><g clip-rule="nonzero" clip-path="url(#a33f4944e0)"><path style=" stroke:none;fill-rule:evenodd;fill:#2f5ed4;fill-opacity:1;" d="M 30.082031 13.8125 L 30.082031 26.167969 L 38.074219 26.167969 L 38.113281 17.988281 L 38.148438 9.8125 L 64.714844 9.777344 L 91.285156 9.738281 L 91.285156 58.292969 L 82.613281 58.332031 L 73.945312 58.367188 L 73.878906 62.351562 C 73.832031 65.355469 73.859375 66.359375 73.988281 66.441406 C 74.085938 66.5 79.734375 66.519531 86.539062 66.488281 C 93.347656 66.453125 99.0625 66.429688 99.242188 66.429688 L 99.570312 66.4375 L 99.570312 1.453125 L 30.082031 1.453125 Z M 1.734375 63.527344 L 1.734375 96.09375 L 62.53125 96.09375 L 62.480469 85.210938 C 62.449219 79.226562 62.40625 73.992188 62.375 73.582031 L 62.328125 72.832031 L 54.214844 72.832031 L 54.214844 87.660156 L 14.03125 87.660156 L 24.347656 77.308594 C 30.019531 71.613281 34.800781 66.839844 34.972656 66.695312 C 35.269531 66.449219 36.050781 66.4375 48.820312 66.4375 L 62.355469 66.4375 L 62.320312 48.738281 L 62.28125 31.039062 L 46.179688 31 L 30.082031 30.964844 L 30.082031 59.972656 L 23.9375 66.074219 C 20.550781 69.441406 17.15625 72.808594 13.761719 76.171875 L 9.730469 80.171875 L 9.730469 39.359375 L 11.292969 39.40625 C 12.152344 39.429688 15.554688 39.4375 18.851562 39.421875 L 24.851562 39.398438 L 24.773438 31.039062 L 13.253906 31 L 1.734375 30.964844 Z M 38.308594 39.503906 C 38.261719 39.550781 38.222656 43.800781 38.222656 48.941406 L 38.222656 58.296875 L 54.214844 58.296875 L 54.214844 39.421875 L 46.304688 39.417969 C 41.957031 39.414062 38.359375 39.453125 38.308594 39.503906 "/></g></g></svg>